# AST/ASF file generated using VICON BodyLanguage
# -----------------------------------------------
:version 1.10
:name VICON
:units
  mass 1.0
  length 0.45
  angle deg
:documentation
   .ast/.asf automatically generated from VICON data using
   VICON BodyBuilder and BodyLanguage model FoxedUp or BRILLIANT.MOD
:root
   order TX TY TZ RX RY RZ
   axis XYZ
   position 0 0 0  
   orientation 0 0 0 
:bonedata
  begin
     id 1 
     name lhipjoint
     direction 0.596438 -0.722117 0.35044 
     length 2.43043 
     axis 0 0 0  XYZ
  end
  begin
     id 2 
     name lfemur
     direction 0.34202 -0.939693 0  
     length 7.0339  
     axis 0 0 20  XYZ
    dof rx ry rz
    limits (-160.0 20.0)
           (-70.0 70.0)
           (-60.0 70.0)
  end
  begin
     id 3 
     name ltibia
     direction 0.34202 -0.939693 0   
     length 7.56602   
     axis 0 0 20   XYZ
    dof rx
    limits (-10.0 170.0)
  end
  begin
     id 4 
     name lfoot
     direction 0.0985677 -0.270812 0.957572   
     length 1.85172   
     axis -90 7.62852e-016 20   XYZ
    dof rx rz
    limits (-45.0 90.0)
           (-70.0 20.0)
  end
  begin
     id 5 
     name ltoes
     direction 1.53534e-011 -4.21843e-011 1   
     length 0.929904   
     axis -90 7.62852e-016 20   XYZ
    dof rx
    limits (-90.0 20.0)
  end
  begin
     id 6 
     name rhipjoint
     direction -0.585088 -0.729594 0.354068   
     length 2.40552  
     axis 0 0 0  XYZ 
  end
  begin
     id 7 
     name rfemur
     direction -0.34202 -0.939693 0   
     length 7.12573   
     axis 0 0 -20   XYZ
    dof rx ry rz
    limits (-160.0 20.0)
           (-70.0 70.0)
           (-70.0 60.0)
  end
  begin
     id 8 
     name rtibia
     direction -0.34202 -0.939693 0   
     length 7.35777   
     axis 0 0 -20   XYZ
    dof rx
    limits (-10.0 170.0)
 end
 begin
     id 9 
     name rfoot
     direction -0.120907 -0.33219 0.935431   
     length 2.0994  
     axis -90 -7.62852e-016 -20   XYZ
    dof rx rz
    limits (-45.0 90.0)
           (-20.0 70.0)
  end
  begin
     id 10 
     name rtoes
     direction -1.53577e-011 -4.21787e-011 1   
     length 1.04244   
     axis -90 -7.62852e-016 -20   XYZ
    dof rx
    limits (-90.0 20.0)
  end
  begin
     id 11 
     name lowerback
     direction 0.00268363 0.993603 -0.112896   
     length 2.15839   
     axis 0 0 0   XYZ
    dof rx ry rz
    limits (-20.0 45.0)
           (-30.0 30.0)
           (-30.0 30.0)
  end
  begin
     id 12 
     name upperback
     direction 0.0272563 0.999411 -0.0208618   
     length 2.16443   
     axis 0 0 0   XYZ
    dof rx ry rz
    limits (-20.0 45.0)
           (-30.0 30.0)
           (-30.0 30.0)
  end
  begin
     id 13 
     name thorax
     direction 0.0254655 0.999174 0.0316806   
     length 2.19003   
     axis 0 0 0   XYZ
    dof rx ry rz
    limits (-20.0 45.0)
           (-30.0 30.0)
           (-30.0 30.0)
  end
  begin
     id 14 
     name lowerneck
     direction -0.0102178 0.988048 0.15381   
     length 1.61507   
     axis 0 0 0   XYZ
    dof rx ry rz
    limits (-20.0 45.0)
           (-30.0 30.0)
           (-30.0 30.0)
  end
  begin
     id 15 
     name upperneck
     direction -0.0061965 0.994088 -0.108398   
     length 1.64042   
     axis 0 0 0   XYZ
    dof rx ry rz
    limits (-20.0 45.0)
           (-30.0 30.0)
           (-30.0 30.0)
  end
  begin
     id 16
     name head
     direction -0.00151929 0.998591 -0.0530385  
     length 1.64343  
     axis 0 0 0   XYZ
    dof rx ry rz
    limits (-20.0 45.0)
           (-30.0 30.0)
           (-30.0 30.0)
  end
  begin
     id 17 
     name lclavicle
     direction 0.948974 0.284245 -0.136574  
     length 3.3483  
     axis 0 0 0   XYZ
    dof ry rz
    limits (-20.0 10.0)
           (0.0 20.0)
  end
  begin
     id 18 
     name lhumerus
     direction 1 -4.48961e-011 1.68576e-027   
     length 4.93485   
     axis -180 -30 -90   XYZ
    dof rx ry rz
    limits (-60.0 90.0)
           (-90.0 90.0)
           (-90.0 90.0)
  end
  begin
     id 19
     name lradius
     direction 1 -4.48965e-011 -2.46405e-027   
     length 3.41719   
     axis -180 -30 -90   XYZ
    dof rx
    limits (-10.0 170.0)
  end
  begin
     id 20
     name lwrist
     direction 1 -4.48968e-011 -8.00486e-028   
     length 1.7086   
     axis 3.27501e-015 90 90   XYZ
    dof ry
    limits (-180.0 0.0)
 end
  begin
     id 21 
     name lhand
     direction 1 -4.48977e-011 -1.60161e-027   
     length 0.6241   
     axis 1.02148e-015 90 90   XYZ
    dof rx rz
    limits (-90.0 90.0)
           (-45.0 45.0)
  end
  begin
     id 22 
     name lfingers
     direction 1 -4.49049e-011 -3.21275e-027   
     length 0.503166   
     axis 2.04295e-015 90 90   XYZ
    dof rx
    limits (0.0 90.0)
  end
  begin
     id 23
     name lthumb
     direction 0.707107 -6.34975e-011 0.707107   
     length 0.722448   
     axis -90 45 -1.62303e-014   XYZ
    dof rx rz
    limits (-45.0 45.0)
           (-45.0 45.0)
  end
  begin
     id 24 
     name rclavicle
     direction -0.904485 0.355099 -0.236246   
     length 3.18329  
     axis 0 0 0   XYZ 
    dof ry rz
    limits (-10.0 20.0)
           (-20.0 0.0)
  end
  begin
     id 25 
     name rhumerus
     direction -1 -4.48953e-011 1.32816e-027  
     length 5.22034   
     axis -180 30 90   XYZ
    dof rx ry rz
    limits (-90.0 60.0)
           (-90.0 90.0)
           (-90.0 90.0)
  end
  begin
     id 26 
     name rradius
     direction -1 -4.48965e-011 -3.93727e-027   
     length 3.41809   
     axis -180 30 90   XYZ
    dof rx
    limits (-10.0 170.0)
  end
  begin
     id 27 
     name rwrist
     direction -1 -4.48962e-011 -8.003e-028   
     length 1.70904   
     axis 3.27501e-015 -90 -90   XYZ
    dof ry
    limits (-180.0 0.0)
  end
  begin
     id 28
     name rhand
     direction -1 -4.49008e-011 -1.60365e-027   
     length 0.77534   
     axis 1.02148e-015 -90 -90   XYZ
    dof rx rz
    limits (-90.0 90.0)
           (-45.0 45.0)
  end
  begin
     id 29
     name rfingers
     direction -1 -4.49001e-011 -3.2064e-027   
     length 0.625099   
     axis 2.04295e-015 -90 -90   XYZ
    dof rx
    limits (0.0 90.0)
  end
  begin
     id 30
     name rthumb
     direction -0.707107 -6.34989e-011 0.707107   
     length 0.897521   
     axis -90 -45 1.62303e-014   XYZ
    dof rx rz
    limits (-45.0 45.0)
           (-45.0 45.0)
  end
:hierarchy
  begin
    root lhipjoint rhipjoint lowerback
    lhipjoint lfemur
    lfemur ltibia
    ltibia lfoot
    lfoot ltoes
    rhipjoint rfemur
    rfemur rtibia
    rtibia rfoot
    rfoot rtoes
    lowerback upperback
    upperback thorax
    thorax lowerneck lclavicle rclavicle
    lowerneck upperneck
    upperneck head
    lclavicle lhumerus
    lhumerus lradius
    lradius lwrist
    lwrist lhand lthumb
    lhand lfingers
    rclavicle rhumerus
    rhumerus rradius
    rradius rwrist
    rwrist rhand rthumb
    rhand rfingers
  end

#!OML:ASF \\sashay\E\Suitcase\Project 1\Capture day 1\Session 1\Male1.ASF
:FULLY-SPECIFIED
:DEGREES
473
root 0.545816 17.5267 -15.432 3.33022 8.14022 -6.66013
lowerback 8.99859 -0.501001 2.58648
upperback -0.920402 -0.109202 4.45059
thorax -6.02515 -0.0581771 3.22985
lowerneck -17.0984 -1.04325 -1.51211
upperneck 21.0927 -0.244663 -3.21446
head 9.49401 -0.60004 -0.892649
rclavicle -1.93815e-014 3.53837e-014
rhumerus -55.4602 -44.9547 -41.2042
rradius 10.8662
rwrist 17.0858
rhand -14.1903 14.0581
rfingers 7.12502
rthumb 11.9456 -15.581
lclavicle -1.93815e-014 3.53837e-014
lhumerus -33.3078 12.3238 77.0766
lradius 29.6103
lwrist -5.70742
lhand -0.21536 38.8783
lfingers 7.12502
lthumb 25.3841 67.2085
rfemur -7.62248 0.316165 33.0007
rtibia 16.0669
rfoot -11.9268 -10.3638
rtoes 22.0622
lfemur -22.9725 -1.17417 -11.5702
ltibia 69.0065
lfoot -8.33 -5.18833
ltoes 13.1017
474
root 0.547395 17.5105 -15.32 3.19754 8.29696 -6.70686
lowerback 9.17044 -0.42667 2.80165
upperback -0.738221 0.014956 4.45972
thorax -5.93506 -0.00379297 3.09944
lowerneck -16.8696 -1.42754 -1.32433
upperneck 20.2188 -0.572235 -4.46427
head 9.14206 -0.863875 -1.38348
rclavicle -2.70844e-014 -6.08281e-014
rhumerus -55.6177 -44.4912 -41.4157
rradius 10.89
rwrist 16.3566
rhand -14.127 13.591
rfingers 7.12502
rthumb 12.0067 -16.0446
lclavicle -2.70844e-014 -6.08281e-014
lhumerus -33.1472 12.3976 77.0728
lradius 29.734
lwrist -5.59923
lhand -0.491442 38.2308
lfingers 7.12502
lthumb 25.1196 66.5983
rfemur -7.19414 0.476454 33.1656
rtibia 16.3698
rfoot -12.4327 -10.7667
rtoes 22.1585
lfemur -23.8181 -1.49467 -11.5023
ltibia 68.8463
lfoot -9.25413 -4.69201
ltoes 13.2858
475
root 0.548072 17.4885 -15.201 3.33762 8.34306 -6.57264
lowerback 9.20459 -0.321828 2.7172
upperback -0.791693 0.146193 4.39228
thorax -6.01496 0.0623233 3.05868
lowerneck -17.4395 -1.47442 -2.50064
upperneck 21.8198 -0.598518 -2.93758
head 9.81974 -0.825562 -0.689782
rclavicle 3.93097e-014 -1.31198e-014
rhumerus -57.0905 -44.8439 -39.837
rradius 10.8147
rwrist 17.1765
rhand -13.9402 13.2911
rfingers 7.12502
rthumb 12.1867 -16.3339
lclavicle 3.93097e-014 -1.31198e-014
lhumerus -33.4503 12.0033 76.9885
lradius 30.2578
lwrist -4.9923
lhand -0.730226 39.136
lfingers 7.12502
lthumb 24.8908 67.5354
rfemur -7.06892 0.605584 33.1079
rtibia 16.7493
rfoot -12.9951 -10.846
rtoes 21.8837
lfemur -24.9803 -1.68045 -11.6684
ltibia 68.6165
lfoot -9.32503 -4.02104
ltoes 15.6961
476
root 0.553152 17.4667 -15.0825 3.32197 8.33108 -6.78824
lowerback 9.1151 -0.298068 2.99994
upperback -0.598192 0.203065 4.54784
thorax -5.76231 0.0846276 3.05044
lowerneck -17.58 -1.3044 -2.31119
upperneck 22.0421 -0.378291 -3.03231
head 9.92478 -0.723095 -0.728344
rclavicle 1.77912e-014 -2.06736e-014
rhumerus -56.0748 -43.6824 -41.3751
rradius 11.0459
rwrist 15.7788
rhand -13.6017 13.3567
rfingers 7.12502
rthumb 12.5132 -16.2487
lclavicle 1.77912e-014 -2.06736e-014
lhumerus -33.3918 12.6541 76.9451
lradius 30.4864
lwrist -5.11848
lhand -0.782189 39.8308
lfingers 7.12502
lthumb 24.841 68.2371
rfemur -6.82277 0.942451 33.4474
rtibia 17.0585
rfoot -13.3282 -11.4025
rtoes 22.2932
lfemur -25.7957 -1.87826 -11.4369
ltibia 68.24
lfoot -10.8642 -4.00135
ltoes 11.0032
477
root 0.555256 17.45 -14.957 3.21679 8.41415 -6.62821
lowerback 9.17675 -0.207793 3.01985
upperback -0.567875 0.317684 4.37966
thorax -5.76702 0.137608 2.84546
lowerneck -17.7656 -1.5301 -2.15226
upperneck 22.5098 -0.658577 -3.26317
head 10.124 -0.874127 -0.881842
rclavicle 3.70236e-014 3.69739e-014
rhumerus -59.2106 -45.3566 -37.4475
rradius 10.4372
rwrist 19.2098
rhand -14.2655 13.6837
rfingers 7.12502
rthumb 11.8731 -15.9596
lclavicle 3.70236e-014 3.69739e-014
lhumerus -33.8487 11.8483 76.8476
lradius 31.0019
lwrist -4.1598
lhand -1.57065 38.688
lfingers 7.12502
lthumb 24.0851 67.1964
rfemur -6.37601 0.886412 33.3999
rtibia 17.3799
rfoot -13.8653 -11.5142
rtoes 21.4602
lfemur -26.502 -2.11315 -11.639
ltibia 67.657
lfoot -10.9857 -3.70661
ltoes 12.7106
478
root 0.561026 17.4305 -14.8399 3.26468 8.40887 -6.6985
lowerback 9.31185 -0.176051 3.28463
upperback -0.495499 0.390461 4.32347
thorax -5.76724 0.164533 2.62687
lowerneck -17.8816 -1.30133 -1.23336
upperneck 22.5107 -0.442056 -3.89154
head 10.1404 -0.771035 -1.22857
rclavicle -1.29707e-014 3.49861e-014
rhumerus -58.0042 -44.049 -39.6457
rradius 10.6275
rwrist 17.422
rhand -14.3639 12.6829
rfingers 7.12502
rthumb 11.7782 -16.9659
lclavicle -1.29707e-014 3.49861e-014
lhumerus -33.8423 12.2024 76.4391
lradius 31.0182
lwrist -4.10443
lhand -2.15435 38.994
lfingers 7.12502
lthumb 23.5253 67.5753
rfemur -6.07286 1.23025 33.5863
rtibia 17.6275
rfoot -14.306 -11.9446
rtoes 20.6637
lfemur -27.4253 -2.24642 -11.6531
ltibia 67.0235
lfoot -11.7376 -3.41997
ltoes 9.84138
479
root 0.564577 17.4217 -14.725 3.31645 8.39177 -6.74271
lowerback 9.24183 -0.155227 3.29683
upperback -0.370539 0.414976 4.43971
thorax -5.59751 0.179217 2.73644
lowerneck -17.4403 -1.37978 -2.00244
upperneck 22.0352 -0.520033 -3.25713
head 9.89248 -0.787167 -0.876286
rclavicle 9.93923e-015 -1.27222e-014
rhumerus -57.5028 -43.3323 -40.3967
rradius 10.7061
rwrist 16.4054
rhand -14.0216 11.9849
rfingers 7.12502
rthumb 12.1082 -17.6447
lclavicle 9.93923e-015 -1.27222e-014
lhumerus -34.013 12.6392 76.4144
lradius 31.4323
lwrist -4.04229
lhand -2.28096 39.1918
lfingers 7.12502
lthumb 23.4039 67.7887
rfemur -5.8467 1.62787 33.706
rtibia 17.8317
rfoot -14.6382 -12.1517
rtoes 20.9925
lfemur -28.39 -2.44615 -11.624
ltibia 66.2315
lfoot -11.7382 -3.21532
ltoes 11.8224
480
root 0.578016 17.4155 -14.6039 3.69038 8.43368 -6.43098
lowerback 8.98256 -0.159803 3.38678
upperback -0.442224 0.394245 4.23991
thorax -5.52315 0.163301 2.47641
lowerneck -17.5926 -1.38329 -2.6626
upperneck 22.1211 -0.44324 -2.79097
head 9.95781 -0.754914 -0.594796
rclavicle 1.8487e-014 3.57812e-014
rhumerus -59.7901 -44.5546 -37.3182
rradius 10.2453
rwrist 18.8767
rhand -13.8006 12.9489
rfingers 7.12502
rthumb 12.3214 -16.668
lclavicle 1.8487e-014 3.57812e-014
lhumerus -34.6537 12.1841 76.1735
lradius 32.0626
lwrist -3.03256
lhand -3.08089 38.5468
lfingers 7.12502
lthumb 22.6363 67.2394
rfemur -5.88125 1.65034 33.3911
rtibia 18.1344
rfoot -15.2416 -12.1738
rtoes 21.1421
lfemur -29.5122 -2.7051 -12.0459
ltibia 65.3496
lfoot -11.9963 -3.16103
ltoes 11.9606
481
root 0.582762 17.3968 -14.4785 3.61114 8.38805 -6.53526
lowerback 9.0355 -0.145035 3.53529
upperback -0.299427 0.427326 4.27655
thorax -5.40289 0.177082 2.42524
lowerneck -17.4354 -1.10476 -2.16199
upperneck 21.9861 -0.126617 -3.11345
head 9.87842 -0.600899 -0.745541
rclavicle -1.53064e-014 -3.4191e-014
rhumerus -58.5378 -43.1835 -39.4154
rradius 10.501
rwrist 17.1022
rhand -13.321 12.4406
rfingers 7.12502
rthumb 12.7838 -17.1481
lclavicle -1.53064e-014 -3.4191e-014
lhumerus -34.7171 12.4722 76.0891
lradius 32.1881
lwrist -2.80615
lhand -3.80727 38.6591
lfingers 7.12502
lthumb 21.939 67.4351
rfemur -5.46802 1.8344 33.5949
rtibia 18.5085
rfoot -15.734 -12.3526
rtoes 20.9208
lfemur -30.0709 -2.98933 -11.9621
ltibia 64.3696
lfoot -12.8919 -2.70661
ltoes 9.48883
482
root 0.587356 17.3761 -14.3678 3.70776 8.235 -6.34522
lowerback 9.07551 0.0470054 3.48684
upperback -0.194998 0.666462 4.13508
thorax -5.31773 0.294995 2.26987
lowerneck -17.7241 -1.24158 -1.37482
upperneck 22.2771 -0.356705 -3.77952
head 10.0294 -0.725257 -1.14838
rclavicle 1.37161e-014 2.8625e-014
rhumerus -60.9628 -44.5281 -36.3402
rradius 10.2115
rwrist 19.3727
rhand -13.3453 12.4997
rfingers 7.12502
rthumb 12.7603 -17.0903
lclavicle 1.37161e-014 2.8625e-014
lhumerus -34.698 12.207 75.9579
lradius 32.4938
lwrist -2.44366
lhand -3.82119 39.2493
lfingers 7.12502
lthumb 21.9257 68.0268
rfemur -5.1968 2.43203 33.5024
rtibia 18.6931
rfoot -16.136 -12.8776
rtoes 21.734
lfemur -30.7088 -3.04151 -12.1935
ltibia 63.3241
lfoot -13.2648 -2.51168
ltoes 8.98225
483
root 0.593078 17.3586 -14.2473 3.80817 8.32105 -6.21244
lowerback 9.07463 0.0173107 3.4327
upperback -0.177874 0.618625 4.10873
thorax -5.29861 0.272643 2.27886
lowerneck -17.6726 -1.4004 -0.0929922
upperneck 21.782 -0.398745 -6.05841
head 9.83317 -0.89728 -2.16106
rclavicle 9.24349e-015 -2.54444e-014
rhumerus -59.2664 -42.6253 -39.3142
rradius 10.5911
rwrist 16.6793
rhand -13.1862 12.2982
rfingers 7.12502
rthumb 12.9137 -17.2822
lclavicle 9.24349e-015 -2.54444e-014
lhumerus -35.0882 12.4467 75.7415
lradius 32.7186
lwrist -1.9735
lhand -4.58829 38.9442
lfingers 7.12502
lthumb 21.1889 67.8062
rfemur -4.91669 2.49619 33.4706
rtibia 18.839
rfoot -16.432 -13.1498
rtoes 20.5861
lfemur -31.4743 -3.30706 -12.3837
ltibia 62.0659
lfoot -13.3787 -2.53851
ltoes 8.93733
484
root 0.592108 17.3482 -14.1226 3.72014 8.26873 -6.65256
lowerback 9.27067 0.0552216 3.85797
upperback -0.26021 0.739994 4.22672
thorax -5.49535 0.320879 2.14942
lowerneck -18.1815 -1.2971 -0.955111
upperneck 23.6575 -0.247923 -4.70514
head 10.6175 -0.772984 -1.56115
rclavicle -7.25564e-015 -1.59028e-015
rhumerus -59.0309 -41.4986 -40.2955
rradius 10.7076
rwrist 15.4129
rhand -13.1234 11.6906
rfingers 7.12502
rthumb 12.9743 -17.886
lclavicle -7.25564e-015 -1.59028e-015
lhumerus -35.697 12.4231 75.4632
lradius 32.9718
lwrist -1.58041
lhand -4.28956 38.5477
lfingers 7.12502
lthumb 21.4759 67.3772
rfemur -4.41696 2.74883 34.0689
rtibia 18.9512
rfoot -17.0472 -13.2803
rtoes 21.9209
lfemur -31.7664 -3.60948 -11.7087
ltibia 60.7773
lfoot -13.8908 -2.85421
ltoes 12.4698
485
root 0.597212 17.3365 -14.007 4.07407 8.09622 -6.33457
lowerback 8.9979 0.0596495 3.60592
upperback -0.140636 0.688773 4.15481
thorax -5.21614 0.303976 2.21969
lowerneck -17.801 -0.94833 -0.126499
upperneck 23.0677 0.119309 -5.30723
head 10.3353 -0.5914 -1.84811
rclavicle -8.15017e-015 1.59028e-015
rhumerus -59.1403 -41.5823 -39.924
rradius 10.4956
rwrist 15.7361
rhand -13.2224 11.6195
rfingers 7.12502
rthumb 12.8788 -17.9631
lclavicle -8.15017e-015 1.59028e-015
lhumerus -35.8524 13.0508 75.1527
lradius 33.0361
lwrist -1.42177
lhand -4.79265 38.0231
lfingers 7.12502
lthumb 20.9926 66.907
rfemur -4.25356 2.70598 33.7867
rtibia 18.8301
rfoot -16.9961 -13.1651
rtoes 21.4128
lfemur -32.7096 -3.31206 -12.3514
ltibia 59.2364
lfoot -14.0951 -2.03764
ltoes 2.3474
486
root 0.605615 17.3351 -13.8857 4.16203 7.95318 -6.09432
lowerback 8.92185 0.24369 3.47239
upperback -0.0310584 0.902436 4.04338
thorax -5.06043 0.412781 2.14793
lowerneck -18.2761 -1.23085 -1.03949
upperneck 23.4919 -0.132193 -4.70632
head 10.5786 -0.726208 -1.52891
rclavicle -1.07344e-014 -4.77083e-015
rhumerus -60.357 -42.165 -38.3978
rradius 10.3233
rwrist 16.7138
rhand -13.0557 11.357
rfingers 7.12502
rthumb 13.0395 -18.2154
lclavicle -1.07344e-014 -4.77083e-015
lhumerus -35.8478 13.025 75.1037
lradius 33.1016
lwrist -1.1472
lhand -5.43969 39.0707
lfingers 7.12502
lthumb 20.3709 68.0222
rfemur -3.69712 2.42102 33.5213
rtibia 18.4585
rfoot -17.1145 -12.8432
rtoes 21.7457
lfemur -33.0901 -3.32939 -12.6367
ltibia 57.5566
lfoot -13.9139 -1.75267
ltoes 4.42276
